<svg width="61" height="61" viewBox="0 0 61 61" fill="none" xmlns="http://www.w3.org/2000/svg">
<rect x="1.47998" y="0.890015" width="59" height="59.5" rx="29.5" fill="#E7C873"/>
<rect x="1.47998" y="0.890015" width="59" height="59.5" rx="29.5" stroke="#E7C873"/>
<g clip-path="url(#clip0_2_511)">
<path d="M40.78 38.5867L35.8466 33.72C36.4689 32.9645 36.9578 32.1312 37.3133 31.22C37.6689 30.3089 37.8466 29.3423 37.8466 28.32C37.8466 26.8089 37.4689 25.4089 36.7133 24.12C35.9578 22.8312 34.9355 21.8089 33.6466 21.0534C32.3578 20.2978 30.9466 19.92 29.4133 19.92C27.88 19.92 26.4689 20.2978 25.18 21.0534C23.8911 21.8089 22.8689 22.8312 22.1133 24.12C21.3578 25.4089 20.98 26.82 20.98 28.3534C20.98 29.8867 21.3578 31.2978 22.1133 32.5867C22.8689 33.8756 23.8911 34.8978 25.18 35.6534C26.4689 36.4089 27.8689 36.7867 29.38 36.7867C30.4022 36.7867 31.3689 36.6089 32.28 36.2534C33.1911 35.8978 34.0244 35.4089 34.78 34.7867L39.6466 39.72C39.8244 39.8534 40.0133 39.92 40.2133 39.92C40.4133 39.92 40.5911 39.8423 40.7466 39.6867C40.9022 39.5312 40.98 39.3534 40.98 39.1534C40.98 38.9534 40.9133 38.7645 40.78 38.5867ZM22.5133 28.32C22.5133 27.0756 22.8244 25.9312 23.4466 24.8867C24.0689 23.8423 24.9022 23.0089 25.9466 22.3867C26.9911 21.7645 28.1355 21.4534 29.38 21.4534C30.6244 21.4534 31.7689 21.7645 32.8133 22.3867C33.8578 23.0089 34.6911 23.8423 35.3133 24.8867C35.9355 25.9312 36.2466 27.0756 36.2466 28.32C36.2466 29.5645 35.9355 30.7089 35.3133 31.7534C34.6911 32.7978 33.8578 33.6312 32.8133 34.2534C31.7689 34.8756 30.6244 35.1867 29.38 35.1867C28.1355 35.1867 26.9911 34.8756 25.9466 34.2534C24.9022 33.6312 24.0689 32.7978 23.4466 31.7534C22.8244 30.7089 22.5133 29.5645 22.5133 28.32Z" fill="#1A1A1A"/>
</g>
<defs>
<clipPath id="clip0_2_511">
<rect width="20" height="20" fill="white" transform="matrix(1 0 0 -1 20.98 39.92)"/>
</clipPath>
</defs>
</svg>
